<?xml version="1.0" encoding="UTF-8"?>
<!-- Generator: Adobe Illustrator 19.2.1, SVG Export Plug-In . SVG Version: 6.00 Build 0)  -->
<svg xmlns="http://www.w3.org/2000/svg" xmlns:xlink="http://www.w3.org/1999/xlink" xmlns:dc="http://purl.org/dc/elements/1.1/" xmlns:cc="http://creativecommons.org/ns#" xmlns:rdf="http://www.w3.org/1999/02/22-rdf-syntax-ns#" version="1.1" id="DESIGNS" x="0px" y="0px" width="32px" height="32px" viewBox="0 0 32 32" style="enable-background:new 0 0 32 32;" xml:space="preserve">
<title property="dc:title">to tweet</title><desc property="dc:description">An icon for "tweet" from the Stone series on to [icon]. Downloaded from http://www.toicon.com/icons/stone_tweet by 220.246.107.221 on 2021-10-19. Licensed CC-BY, see http://toicon.com/license/ for details.</desc>
<path class="stone_een" d="M6.646,12.354l-0.963,0.963C5.195,14.31,4.182,15,3,15c-1.699,0-3.069-1.413-2.997-3.128  c0.065-1.556,1.363-2.832,2.921-2.871c1.215-0.031,2.261,0.667,2.76,1.682l0.963,0.963C6.842,11.842,6.842,12.158,6.646,12.354z   M16.464,11.464C15.52,12.409,15,13.664,15,15c0,1.336,0.52,2.591,1.464,3.536S18.664,20,20,20c1.336,0,2.591-0.52,3.536-1.464  L27.071,15l-3.536-3.536C22.591,10.52,21.336,10,20,10C18.664,10,17.409,10.52,16.464,11.464z M31.95,14.1  C31.425,19.881,26.796,24.47,21,24.95v2.55c0,0.276-0.224,0.5-0.5,0.5S20,27.776,20,27.5V25c-0.074,0-0.15-0.001-0.225-0.002  c-0.262-0.005-0.518-0.033-0.775-0.055V27.5c0,0.276-0.224,0.5-0.5,0.5S18,27.776,18,27.5v-2.687  C12.72,23.892,8.687,19.397,8.085,14H6.604c-0.223,0-0.334-0.269-0.177-0.427L8,12l-1.573-1.573C6.269,10.269,6.381,10,6.604,10  H8.08C8.566,6.609,11.474,4,15,4c0.288,0,0.58,0.017,0.875,0.053c2.866,0.347,5.09,2.5,5.845,5.197C21.168,9.086,20.591,9,20,9  c-1.603,0-3.109,0.624-4.243,1.757C14.624,11.891,14,13.397,14,15c0,1.603,0.624,3.109,1.757,4.243S18.397,21,20,21  s3.109-0.624,4.243-1.757l3.535-3.536c0.391-0.391,0.391-1.024,0-1.414L26.485,13h4.465C31.542,13,32.004,13.51,31.95,14.1z M14,10  c0-0.552-0.448-1-1-1s-1,0.448-1,1c0,0.552,0.448,1,1,1S14,10.552,14,10z" style="fill: #0B1719;"/>
<metadata><work rdf:about=""><format>image/svg+xml</format><type rdf:resource="http://purl.org/dc/dcmitype/StillImage"/><license rdf:resource="http://creativecommons.org/licenses/by/4.0/"/><attributionname>Shannon E Thomas</attributionname><attributionurl>http://www.toicon.com/icons/stone_tweet</attributionurl></work></metadata></svg>
