<svg width="32" height="32" xmlns="http://www.w3.org/2000/svg" xml:space="preserve" style="enable-background:new 0 0 32 32;" version="1.1">
 <title property="dc:title">to haunt</title>

 <desc property="dc:description">An icon for "haunt" from the Sharp Corners series on to [icon]. Downloaded from http://www.toicon.com/icons/sharp-corners_haunt by 223.215.121.121 on 2021-10-19. Licensed CC-BY, see http://toicon.com/license/ for details.</desc>
 <metadata>image/svg+xmlShannon E Thomashttp://www.toicon.com/icons/sharp-corners_haunt</metadata>
 <g>
  <title>background</title>
  <rect fill="none" id="canvas_background" height="920" width="1790" y="-1" x="-1"/>
 </g>
 <g>
  <title>Layer 1</title>
  <path stroke="null" id="svg_1" fill=" #111918" d="m27.494617,24.85616l0,5.627483l-8.04583,0c0,0 5.405648,-0.503439 8.04583,-5.627483zm-22.988086,-11.533123l0,17.160606l8.04583,0l0,-9.195234l4.386127,0c0.128733,-0.360913 0.21149,-0.744814 0.21149,-1.149404c0,-3.168908 2.578114,-5.747021 5.747021,-5.747021c1.886172,0 3.54936,0.92642 4.597617,2.33444l0,-3.402237l-11.494043,-7.663078l-11.494043,7.661929zm22.988086,6.815967c0,5.078068 -4.117166,9.195234 -9.195234,9.195234c-1.676981,0 -3.243619,-0.456314 -4.597617,-1.240207l0,-3.35741c2.539034,0 4.597617,-2.058583 4.597617,-4.597617c0,-2.539034 2.058583,-4.597617 4.597617,-4.597617s4.597617,2.058583 4.597617,4.597617zm-5.747021,0l-1.149404,0l0,1.149404l1.149404,0l0,-1.149404zm3.448213,0l-1.149404,0l0,1.149404l1.149404,0l0,-1.149404zm-9.195234,-18.622648l-6.896426,4.597617l0,-3.216033l-4.597617,0l0,6.281494l-3.893032,2.595355l1.274689,1.912609l14.112386,-9.407874l14.111236,9.407874l1.274689,-1.912609l-15.385926,-10.258433z" class="sharpcorners_een"/>
 </g>
</svg>