<?xml version="1.0" encoding="UTF-8"?>
<!-- Generator: Adobe Illustrator 19.2.1, SVG Export Plug-In . SVG Version: 6.00 Build 0)  -->
<svg xmlns="http://www.w3.org/2000/svg" xmlns:xlink="http://www.w3.org/1999/xlink" xmlns:dc="http://purl.org/dc/elements/1.1/" xmlns:cc="http://creativecommons.org/ns#" xmlns:rdf="http://www.w3.org/1999/02/22-rdf-syntax-ns#" version="1.1" id="DESIGNS" x="0px" y="0px" width="32px" height="32px" viewBox="0 0 32 32" style="enable-background:new 0 0 32 32;" xml:space="preserve">
<title property="dc:title">to navigate</title><desc property="dc:description">An icon for "navigate" from the Stone series on to [icon]. Downloaded from http://www.toicon.com/icons/stone_navigate by 220.246.107.221 on 2021-10-19. Licensed CC-BY, see http://toicon.com/license/ for details.</desc>
<path class="stone_een" d="M11.39,11.39l3.227,5.993l5.993,3.227l-3.227-5.993L11.39,11.39z M16.707,16.707  c-0.391,0.391-1.024,0.391-1.414,0c-0.391-0.391-0.391-1.024,0-1.414c0.391-0.391,1.024-0.391,1.414,0  C17.098,15.683,17.098,16.317,16.707,16.707z M16,2C8.268,2,2,8.268,2,16s6.268,14,14,14s14-6.268,14-14S23.732,2,16,2z M14,5h0.707  L17,7.293V5h1v4h-0.707L15,6.707V9h-1V5z M21.604,22.281l-7.197-3.875c-0.345-0.186-0.627-0.468-0.813-0.813l-3.875-7.197  C9.484,9.96,9.96,9.484,10.396,9.719l7.197,3.875c0.345,0.186,0.627,0.468,0.813,0.813l3.875,7.197  C22.516,22.04,22.04,22.516,21.604,22.281z" style="fill: #0B1719;"/>
<metadata><work rdf:about=""><format>image/svg+xml</format><type rdf:resource="http://purl.org/dc/dcmitype/StillImage"/><license rdf:resource="http://creativecommons.org/licenses/by/4.0/"/><attributionname>Shannon E Thomas</attributionname><attributionurl>http://www.toicon.com/icons/stone_navigate</attributionurl></work></metadata></svg>
